<svg width="75" height="75" viewBox="0 0 75 75" fill="none" xmlns="http://www.w3.org/2000/svg">
<path d="M73.4375 43.75C73.4375 39.9757 71.1909 36.7235 67.9688 35.2386V34.375C67.9688 17.5743 54.3007 3.90625 37.5 3.90625C20.6993 3.90625 7.03125 17.5743 7.03125 34.375V35.2386C3.80907 36.7235 1.5625 39.9757 1.5625 43.75C1.5625 48.9193 5.76782 53.125 10.9375 53.125H14.0625C14.9254 53.125 15.625 52.4254 15.625 51.5625V35.9375C15.625 35.0746 14.9254 34.375 14.0625 34.375H10.9375C10.6738 34.375 10.4145 34.3931 10.1562 34.4146V34.375C10.1562 19.2978 22.4228 7.03125 37.5 7.03125C52.5772 7.03125 64.8438 19.2978 64.8438 34.375V34.4146C64.5855 34.3931 64.3262 34.375 64.0625 34.375H60.9375C60.0746 34.375 59.375 35.0746 59.375 35.9375V51.5625C59.375 52.4254 60.0746 53.125 60.9375 53.125H64.0625C64.3262 53.125 64.5855 53.1069 64.8438 53.0854V55.4688C64.8438 60.638 60.6384 64.8438 55.4688 64.8438H43.75C43.75 63.1207 42.3485 61.7188 40.625 61.7188H32.8125C31.089 61.7188 29.6875 63.1207 29.6875 64.8438V67.9688C29.6875 69.6918 31.089 71.0938 32.8125 71.0938H40.625C42.3485 71.0938 43.75 69.6918 43.75 67.9688H55.4688C62.3611 67.9688 67.9688 62.3611 67.9688 55.4688V52.2614C71.1909 50.7765 73.4375 47.5243 73.4375 43.75ZM12.5 37.5V50H10.9375C7.4913 50 4.6875 47.1962 4.6875 43.75C4.6875 40.3038 7.4913 37.5 10.9375 37.5H12.5ZM32.8125 67.9688V64.8438H40.625L40.6261 66.395C40.6261 66.3989 40.625 66.4024 40.625 66.4062C40.625 66.4102 40.6261 66.4138 40.6261 66.4177L40.6273 67.9688H32.8125ZM64.0625 50H62.5V37.5H64.0625C67.5087 37.5 70.3125 40.3038 70.3125 43.75C70.3125 47.1962 67.5087 50 64.0625 50ZM37.5 53.9062C46.9772 53.9062 54.6875 46.196 54.6875 36.7188C54.6875 27.2415 46.9772 19.5312 37.5 19.5312C28.0228 19.5312 20.3125 27.2415 20.3125 36.7188C20.3125 39.785 21.1342 42.7818 22.6952 45.4266L21.122 53.6114C21.0129 54.1798 21.2265 54.7619 21.6782 55.1247C21.9604 55.3513 22.3068 55.4688 22.6562 55.4688C22.8661 55.4688 23.0766 55.4268 23.2758 55.341L30.291 52.3129C32.5653 53.3707 34.9869 53.9062 37.5 53.9062ZM24.7482 51.3016L25.8781 45.4205C25.9537 45.0272 25.8759 44.6201 25.6599 44.2829C24.2058 42.0132 23.4375 39.3974 23.4375 36.7188C23.4375 28.9646 29.7462 22.6562 37.5 22.6562C45.2538 22.6562 51.5625 28.9646 51.5625 36.7188C51.5625 44.4729 45.2538 50.7812 37.5 50.7812C35.2409 50.7812 33.0711 50.251 31.0509 49.2054C30.6351 48.9899 30.1437 48.9719 29.7134 49.1585L24.7482 51.3016ZM37.5 41.4062H29.6875C28.8246 41.4062 28.125 40.7066 28.125 39.8438C28.125 38.9809 28.8246 38.2812 29.6875 38.2812H37.5C38.3629 38.2812 39.0625 38.9809 39.0625 39.8438C39.0625 40.7066 38.3629 41.4062 37.5 41.4062ZM28.125 33.5938C28.125 32.7309 28.8246 32.0312 29.6875 32.0312H45.3125C46.1754 32.0312 46.875 32.7309 46.875 33.5938C46.875 34.4566 46.1754 35.1562 45.3125 35.1562H29.6875C28.8246 35.1562 28.125 34.4566 28.125 33.5938Z" fill="#2575FC"/>
</svg>
