<svg width="68" height="68" viewBox="0 0 68 68" fill="none" xmlns="http://www.w3.org/2000/svg">
<g clip-path="url(#clip0_1_26)">
<path d="M47.1352 63.6172C44.8242 65.1977 41.7297 65.1711 39.4719 63.6172C36.2445 61.3461 31.8883 61.2797 28.5414 63.6039C26.1242 65.2641 23.0961 65.1711 20.8516 63.6172C19.2711 62.5016 17.332 61.8907 15.393 61.8907C14.6094 61.8907 13.9719 62.5282 13.9719 63.3118C13.9719 64.0953 14.6094 64.7328 15.393 64.7328C16.7477 64.7328 18.1156 65.1578 19.2313 65.9547C22.432 68.1727 26.7352 68.3055 30.1617 65.9547C32.4461 64.361 35.5672 64.3477 37.8516 65.9547C41.132 68.2125 45.4086 68.2524 48.7688 65.9547C49.5125 65.4368 49.6055 64.4008 48.9813 63.7766C48.4766 63.2586 47.693 63.2188 47.1352 63.6172Z" fill="#2575FC"/>
<path d="M67.7477 56.8836C67.2961 56.2461 66.4195 56.0867 65.782 56.525C63.4844 58.1188 60.4031 58.1188 58.1055 56.525C57.3883 56.0203 56.6313 55.6485 55.8609 55.3696L63.1922 44.6383C64.6 42.5797 63.9359 39.6446 61.5719 38.4492L57.5742 36.4438V21.1703C57.5742 18.8328 55.6617 16.9203 53.3242 16.9203H48.4102V9.68206C48.4102 7.34456 46.4977 5.43206 44.1602 5.43206H39.95V1.76643C39.95 0.982837 39.3125 0.345337 38.5289 0.345337C37.7453 0.345337 37.1078 0.982837 37.1078 1.76643V5.43206H30.8922V1.76643C30.8922 0.982837 30.2547 0.345337 29.4711 0.345337C28.6875 0.345337 28.05 0.982837 28.05 1.76643V5.43206H23.8398C21.5023 5.43206 19.5898 7.34456 19.5898 9.68206V16.9071H14.6758C12.3383 16.9071 10.4258 18.8196 10.4258 21.1571V36.4305L6.41484 38.436C4.17031 39.5914 3.36016 42.4602 4.83438 44.6383L12.1523 55.3563C11.2359 55.7016 10.7977 55.9406 9.90781 56.5117C7.61016 58.1055 4.51563 58.1055 2.21797 56.5117C1.58047 56.0602 0.690626 56.2196 0.252345 56.8703C-0.199217 57.5078 -0.0398425 58.3977 0.610939 58.836C3.87813 61.1071 8.27422 61.1071 11.5281 58.836C13.9984 57.1227 17.0531 57.3086 19.218 58.836C22.4188 61.0539 26.7219 61.1867 30.1484 58.836C32.4328 57.2422 35.5539 57.2289 37.8383 58.836C39.4719 59.9516 41.3578 60.5492 43.2969 60.5492C49.2336 60.5492 50.2031 55.1703 56.525 58.8758C59.7789 61.1071 64.1352 61.0938 67.3758 58.836C68.0398 58.411 68.1992 57.5211 67.7477 56.8836ZM22.432 9.68206C22.432 8.89846 23.0695 8.26096 23.8531 8.26096H44.1602C44.9438 8.26096 45.5813 8.89846 45.5813 9.68206V16.9203H22.432V9.68206ZM13.268 21.1703C13.268 20.3867 13.9055 19.7492 14.6891 19.7492H53.3242C54.1078 19.7492 54.7453 20.3867 54.7453 21.1703V35.036C46.2852 30.9719 41.65 28.3555 38.6484 26.9742C36.3773 25.9383 33.4289 24.9422 29.5641 26.868L13.268 35.0227V21.1703ZM28.5414 56.525C26.1508 58.1719 23.1094 58.1055 20.8516 56.5383C19.2711 55.4227 17.2789 54.7719 15.207 54.8117L7.17188 43.0578C6.66719 42.3274 6.98594 41.3446 7.70313 40.986L30.8258 29.4047C31.3836 29.1258 31.9813 28.9266 32.5922 28.8071V54.918C31.1313 55.1305 29.7633 55.675 28.5414 56.525ZM45.2492 57.4281C43.2836 58.0125 41.132 57.6805 39.4586 56.525C38.2367 55.6617 36.8688 55.1172 35.4078 54.9047V28.7938C36.0188 28.9133 36.6031 29.1125 37.1609 29.3914L60.2969 40.9727C61.0273 41.3313 61.3461 42.2742 60.8414 43.0446L52.8063 54.7985C48.5297 54.7321 47.6266 56.7242 45.2492 57.4281Z" fill="#2575FC"/>
</g>
<defs>
<clipPath id="clip0_1_26">
<rect width="68" height="68" fill="white"/>
</clipPath>
</defs>
</svg>
