<svg width="76" height="76" viewBox="0 0 76 76" fill="none" xmlns="http://www.w3.org/2000/svg">
<g clip-path="url(#clip0_1_54)">
<path d="M71.1768 46.7267C70.585 46.8936 70.2407 47.5088 70.4077 48.1004C70.9096 49.8789 71.1642 51.7274 71.1642 53.5941C71.1642 64.7211 62.1117 73.7735 50.9848 73.7735C45.1969 73.7735 39.6795 71.2822 35.8473 66.9385C35.4406 66.4778 34.7372 66.4337 34.276 66.8402C33.8149 67.247 33.771 67.9504 34.1777 68.4116C38.4325 73.2342 44.5584 76 50.9848 76C63.3394 76 73.3907 65.9487 73.3907 53.5941C73.3907 51.5228 73.1081 49.471 72.5504 47.4957C72.3836 46.9039 71.7682 46.5598 71.1768 46.7267Z" fill="#2575FC"/>
<path d="M27.0426 26.0508C21.6806 26.0508 17.0198 29.6779 15.7084 34.8712C15.5577 35.4674 15.919 36.0727 16.5151 36.2231C17.1116 36.374 17.7166 36.0124 17.8671 35.4161C18.9286 31.213 22.7017 28.2772 27.0426 28.2772C32.2611 28.2772 36.5066 32.5228 36.5066 37.7413C36.5066 42.9597 32.261 47.2054 27.0426 47.2054C22.7017 47.2054 18.9286 44.2697 17.8671 40.0664C17.7166 39.4701 17.1111 39.1085 16.5151 39.2595C15.919 39.41 15.5577 40.0153 15.7084 40.6113C17.0198 45.8047 21.6806 49.4318 27.0426 49.4318C33.4888 49.4318 38.7331 44.1873 38.7331 37.7411C38.7331 31.2949 33.4887 26.0508 27.0426 26.0508Z" fill="#2575FC"/>
<path d="M33.3171 37.7414C33.3171 34.2816 30.5024 31.4668 27.0426 31.4668C23.5828 31.4668 20.768 34.2816 20.768 37.7414C20.768 41.2012 23.5827 44.016 27.0426 44.016C30.5022 44.0159 33.3171 41.201 33.3171 37.7414ZM22.9946 37.7414C22.9946 35.5093 24.8104 33.6934 27.0426 33.6934C29.2747 33.6934 31.0905 35.5092 31.0905 37.7414C31.0905 39.9736 29.2747 41.7894 27.0426 41.7894C24.8106 41.7893 22.9946 39.9735 22.9946 37.7414Z" fill="#2575FC"/>
<path d="M49.3335 60.1627H49.3363C49.6555 60.1627 49.9593 60.0257 50.1707 59.7866L58.839 49.9755C59.2462 49.5147 59.2025 48.8111 58.7418 48.4041C58.2809 47.9968 57.5774 48.0404 57.1704 48.5012L49.3405 57.3632L44.8032 52.1756C44.3984 51.7128 43.6951 51.6657 43.2323 52.0705C42.7694 52.4755 42.7224 53.1788 43.1272 53.6414L48.4984 59.7823C48.709 60.0232 49.0133 60.1619 49.3335 60.1627Z" fill="#2575FC"/>
<path d="M75.1497 25.0392C75.1497 23.6188 74.5106 22.3456 73.5056 21.4897C74.5106 20.6337 75.1497 19.3605 75.1497 17.9401C75.1497 15.3692 73.0579 13.2774 70.4869 13.2774L51.3729 13.2773V7.60324C51.3729 5.55702 50.5717 3.63743 49.1172 2.19833C47.6627 0.759228 45.7361 -0.016507 43.6888 0.000266411C42.2791 0.015407 41.1323 1.17441 41.1323 2.58412V6.38263C41.1323 6.99761 41.6307 7.49591 42.2456 7.49591C42.8604 7.49591 43.3589 6.99761 43.3589 6.38263V2.58412C43.3589 2.38922 43.5174 2.22876 43.7124 2.22683C43.7322 2.22653 43.7518 2.22638 43.7714 2.22638C45.1964 2.22638 46.5368 2.77724 47.5513 3.78112C48.58 4.79881 49.1464 6.15641 49.1464 7.60338V13.3988C49.1464 14.5595 50.0907 15.5038 51.2514 15.5038H57.4172C56.9805 16.2134 56.7282 17.0477 56.7282 17.9401C56.7282 19.3605 57.3674 20.6337 58.3723 21.4897C57.3674 22.3456 56.7282 23.6189 56.7282 25.0392C56.7282 26.4595 57.3674 27.7328 58.3723 28.5887C57.3674 29.4446 56.7282 30.7179 56.7282 32.1383C56.7282 33.9138 57.726 35.4604 59.1902 36.2477C58.5115 37.0577 58.1021 38.1005 58.1021 39.2373C58.1021 39.5247 58.1296 39.8056 58.1796 40.0787C56.0333 38.9314 53.584 38.2799 50.985 38.2799C48.9238 38.2799 46.957 38.6902 45.1604 39.4318C44.0087 38.1698 43.359 36.5151 43.359 34.794V11.5779C43.359 10.963 42.8606 10.4647 42.2457 10.4647C41.6309 10.4647 41.1324 10.963 41.1324 11.5779V16.3055C40.2562 16.3235 39.3975 16.6708 38.7493 17.3192L36.23 19.8386C35.8684 20.2004 35.3201 20.3076 34.8656 20.1063C34.5742 19.9773 34.2763 19.8541 33.9801 19.7401C33.5169 19.562 33.2056 19.0982 33.2056 18.5863V15.023C33.2056 13.1076 31.6471 11.5491 29.7317 11.5491H24.354C22.4384 11.5491 20.8801 13.1076 20.8801 15.023V18.5863C20.8801 19.0982 20.5688 19.562 20.1054 19.7401C19.8093 19.8541 19.5115 19.9773 19.2198 20.1063C18.7651 20.3076 18.2171 20.2002 17.8555 19.8386L15.3362 17.3192C13.9817 15.9647 11.7777 15.9647 10.4233 17.3192L6.62073 21.1217C5.26624 22.4764 5.26624 24.6802 6.62073 26.0349L9.14016 28.5543C9.5016 28.9157 9.60922 29.4639 9.40764 29.9184C9.27909 30.2088 9.15589 30.5067 9.04145 30.8042C8.86332 31.2674 8.3996 31.5787 7.88764 31.5787H4.3241C2.40852 31.5787 0.85022 33.1372 0.85022 35.0526V40.4303C0.85022 42.3458 2.40866 43.9042 4.3241 43.9042H7.88734C8.39931 43.9042 8.86302 44.2155 9.04115 44.6789C9.15559 44.9762 9.27865 45.2741 9.40734 45.5646C9.60877 46.0192 9.50116 46.5673 9.13971 46.9286L6.62028 49.4481C5.26579 50.8027 5.26579 53.0066 6.62028 54.3612L10.4228 58.1637C11.7773 59.5182 13.9813 59.5182 15.3358 58.1637L17.8551 55.6443C18.2167 55.2825 18.765 55.1754 19.2195 55.3767C19.5119 55.5061 19.81 55.6293 20.1048 55.7427C20.5682 55.921 20.8795 56.3847 20.8795 56.8965V60.4599C20.8795 62.3753 22.4379 63.9338 24.3534 63.9338H29.7311C31.6467 63.9338 33.205 62.3753 33.205 60.4599V56.8965C33.205 56.3847 33.5164 55.921 33.9792 55.7429C34.2746 55.6293 34.5727 55.5061 34.8653 55.3765C35.155 55.2483 35.478 55.2456 35.7712 55.3544C36.0727 58.0036 37.0537 60.5074 38.6555 62.678C39.0206 63.1729 39.7177 63.2777 40.2123 62.9128C40.707 62.5477 40.8121 61.8508 40.4471 61.356C38.779 59.0955 37.8971 56.4113 37.8971 53.5941C37.8971 46.3776 43.7681 40.5065 50.9845 40.5065C58.201 40.5065 64.072 46.3776 64.072 53.5941C64.072 60.8105 58.201 66.6817 50.9845 66.6817C48.4803 66.6817 46.0466 65.9723 43.9468 64.6302C43.4289 64.2991 42.7405 64.4503 42.4093 64.9687C42.0781 65.4867 42.2297 66.1752 42.7477 66.5062C45.2062 68.0776 48.0544 68.9082 50.9845 68.9082C59.4287 68.9082 66.2985 62.0384 66.2985 53.5941C66.2985 49.9189 64.9967 46.5422 62.8307 43.9001H67.8548C70.4258 43.9001 72.5176 41.8083 72.5176 39.2373C72.5176 38.274 72.2239 37.3779 71.7213 36.6338C73.6949 36.0911 75.1494 34.2818 75.1494 32.138C75.1494 30.7176 74.5103 29.4445 73.5053 28.5886C74.5106 27.7327 75.1497 26.4595 75.1497 25.0392ZM35.6809 53.0653C35.1044 53.0085 34.5141 53.097 33.9637 53.3407C33.7052 53.4551 33.4419 53.5641 33.1806 53.6644C31.8636 54.171 30.9789 55.4699 30.9789 56.8964V60.4598C30.9789 61.1476 30.4193 61.7071 29.7316 61.7071H24.3538C23.666 61.7071 23.1065 61.1475 23.1065 60.4598V56.8964C23.1065 55.4699 22.2217 54.171 20.9041 53.6643C20.6433 53.5641 20.3801 53.4553 20.1217 53.3407C18.8321 52.7692 17.2885 53.0621 16.2809 54.0697L13.7616 56.5889C13.2753 57.0754 12.4839 57.0754 11.9974 56.5889L8.19491 52.7864C7.70863 52.3001 7.70863 51.5088 8.19491 51.0224L10.7143 48.503C11.7219 47.4954 12.0148 45.9519 11.4433 44.6623C11.3296 44.4056 11.2207 44.1423 11.1196 43.8796C10.6131 42.5625 9.31427 41.6775 7.88749 41.6775H4.3241C3.63624 41.6775 3.07678 41.1179 3.07678 40.4302V35.0524C3.07678 34.3646 3.63639 33.8051 4.3241 33.8051H7.88734C9.31413 33.8051 10.613 32.9201 11.1193 31.6032C11.2204 31.3403 11.3293 31.0768 11.443 30.8205C12.0146 29.5307 11.7216 27.9873 10.7142 26.9797L8.19476 24.4602C7.70848 23.974 7.70848 23.1826 8.19476 22.6962L11.9973 18.8937C12.4837 18.4073 13.275 18.4073 13.7615 18.8937L16.2807 21.4131C17.2883 22.4207 18.8318 22.7137 20.1214 22.1419C20.3792 22.0277 20.6426 21.9188 20.9043 21.8181C22.2214 21.3116 23.1062 20.0128 23.1062 18.5861V15.0229C23.1062 14.335 23.6658 13.7756 24.3535 13.7756H29.7313C30.4191 13.7756 30.9786 14.3352 30.9786 15.0229V18.5861C30.9786 20.0128 31.8634 21.3116 33.1805 21.8181C33.4422 21.9188 33.7057 22.0277 33.9632 22.1419C35.2528 22.7134 36.7966 22.4206 37.804 21.413L40.3235 18.8935C40.5443 18.6727 40.8339 18.5518 41.1322 18.5346V34.794C41.1322 36.8643 41.8445 38.8597 43.1175 40.46C38.8015 43.0552 35.8634 47.7164 35.6809 53.0653ZM67.8552 41.6735H62.7684C62.7672 41.6735 62.766 41.6734 62.7648 41.6734H62.7613C61.4195 41.6714 60.3287 40.5795 60.3287 39.2373C60.3287 37.894 61.4216 36.801 62.765 36.801H67.8554C69.1987 36.801 70.2917 37.894 70.2917 39.2373C70.2917 40.5807 69.1986 41.6735 67.8552 41.6735ZM70.487 34.5745H61.391C60.0477 34.5745 58.9547 33.4815 58.9547 32.1382C58.9547 30.7948 60.0477 29.702 61.391 29.702H70.487C71.8304 29.702 72.9233 30.795 72.9233 32.1383C72.9233 33.4817 71.8304 34.5745 70.487 34.5745ZM70.487 27.4755H61.391C60.0477 27.4755 58.9547 26.3825 58.9547 25.0392C58.9547 23.6958 60.0477 22.603 61.391 22.603H70.487C71.8304 22.603 72.9233 23.6958 72.9233 25.0392C72.9233 26.3825 71.8304 27.4755 70.487 27.4755ZM70.487 20.3764H61.391C60.0477 20.3764 58.9547 19.2835 58.9547 17.9401C58.9547 16.5968 60.0477 15.504 61.391 15.504H70.487C71.8304 15.504 72.9233 16.5968 72.9233 17.9401C72.9233 19.2835 71.8304 20.3764 70.487 20.3764Z" fill="#2575FC"/>
</g>
<defs>
<clipPath id="clip0_1_54">
<rect width="76" height="76" fill="white"/>
</clipPath>
</defs>
</svg>
