<svg width="81" height="81" viewBox="0 0 81 81" fill="none" xmlns="http://www.w3.org/2000/svg">
<path fill-rule="evenodd" clip-rule="evenodd" d="M70.2335 39.2517C69.5451 39.3679 69.0804 40.0204 69.1966 40.7101C69.4709 42.3317 69.6094 43.9632 69.6094 45.5625C69.6094 54.4832 65.6333 62.5353 59.227 67.8968C58.1081 60.6323 52.9505 54.8058 46.1015 52.7207C48.8245 50.9043 50.625 47.8095 50.625 44.2969C50.625 38.7128 46.0828 34.1719 40.5 34.1719C34.9172 34.1719 30.375 38.7128 30.375 44.2969C30.375 47.8095 32.1755 50.9043 34.8985 52.7207C28.0495 54.8058 22.8919 60.6323 21.773 67.8968C15.3667 62.5353 11.3906 54.4832 11.3906 45.5625C11.3906 43.9632 11.5291 42.3317 11.8034 40.7101C11.9196 40.0204 11.4549 39.3679 10.7665 39.2517C10.062 39.133 9.42421 39.6002 9.30679 40.2899C9.01016 42.0474 8.85938 43.8223 8.85938 45.5625C8.85938 61.106 19.9608 74.2245 35.2558 76.7557C35.325 76.7681 35.3955 76.773 35.4635 76.773C36.0715 76.773 36.608 76.333 36.7105 75.715C36.8255 75.0254 36.3583 74.3728 35.6686 74.2591C31.4038 73.5532 27.5022 71.9407 24.1234 69.6534C24.7339 61.0644 31.7928 54.4219 40.5 54.4219C49.2072 54.4219 56.2661 61.0644 56.8766 69.6534C53.4978 71.9407 49.5962 73.5532 45.3314 74.2591C44.6417 74.3728 44.1745 75.0254 44.2895 75.715C44.392 76.333 44.9285 76.773 45.5365 76.773C45.6045 76.773 45.675 76.7681 45.7442 76.7557C61.0392 74.2245 72.1406 61.106 72.1406 45.5625C72.1406 43.8223 71.9898 42.0474 71.6932 40.2899C71.5758 39.6002 70.9306 39.1306 70.2335 39.2517ZM32.9062 44.2969C32.9062 40.1094 36.3126 36.7031 40.5 36.7031C44.6874 36.7031 48.0938 40.1094 48.0938 44.2969C48.0938 48.4843 44.6874 51.8906 40.5 51.8906C36.3126 51.8906 32.9062 48.4843 32.9062 44.2969Z" fill="#2575FC"/>
<path fill-rule="evenodd" clip-rule="evenodd" d="M54.3601 13.8675C54.2105 13.4077 53.815 13.074 53.3379 13.0048L45.251 11.8306L41.6346 4.50137C41.2094 3.64114 39.7906 3.64114 39.3654 4.50137L35.749 11.8306L27.6621 13.0048C27.185 13.074 26.7895 13.4077 26.6399 13.8675C26.4916 14.3248 26.6152 14.8291 26.96 15.1653L32.8123 20.868L31.4305 28.9215C31.3489 29.3986 31.5442 29.8781 31.9336 30.1599C32.3254 30.4442 32.8408 30.4862 33.2672 30.2563L40.5 26.4521L47.7329 30.2563C47.9182 30.3552 48.1209 30.4022 48.3224 30.4022C48.5844 30.4022 48.8452 30.3206 49.0665 30.1599C49.4558 29.8781 49.6511 29.3986 49.5695 28.9215L48.1877 20.868L54.04 15.1653C54.3848 14.8291 54.5084 14.3248 54.3601 13.8675ZM45.9444 19.5183C45.6466 19.81 45.5106 20.2278 45.581 20.6406L46.6415 26.8228L41.0896 23.9035C40.9042 23.8071 40.7027 23.7577 40.5 23.7577C40.2973 23.7577 40.0958 23.8071 39.9105 23.9035L34.3585 26.8228L35.419 20.6406C35.4894 20.2278 35.3535 19.81 35.0556 19.5183L30.5641 15.143L36.7711 14.2408C37.1839 14.179 37.5399 13.9219 37.724 13.5486L40.5 7.92252L43.276 13.5486C43.4601 13.9219 43.8161 14.179 44.2289 14.2408L50.4359 15.143L45.9444 19.5183Z" fill="#2575FC"/>
<path fill-rule="evenodd" clip-rule="evenodd" d="M10.214 34.2312C10.1324 34.7083 10.3277 35.1878 10.717 35.4696C11.1101 35.7539 11.6267 35.7935 12.0506 35.566L17.7188 32.5849L23.3869 35.566C23.5723 35.6649 23.775 35.7119 23.9764 35.7119C24.2385 35.7119 24.4992 35.6303 24.7205 35.4696C25.1098 35.1878 25.3051 34.7083 25.2235 34.2312L24.1408 27.9204L28.7275 23.4511C29.0723 23.115 29.1959 22.6107 29.0476 22.1534C28.898 21.6936 28.5025 21.3599 28.0254 21.2907L21.6874 20.3711L18.8534 14.6264C18.4282 13.7661 17.0093 13.7661 16.5841 14.6264L13.7501 20.3711L7.41207 21.2907C6.93499 21.3599 6.53948 21.6936 6.38993 22.1534C6.24161 22.6107 6.36521 23.115 6.71004 23.4511L11.2967 27.9204L10.214 34.2312ZM10.3141 23.4289L14.7722 22.7812C15.185 22.7195 15.541 22.4624 15.7252 22.0891L17.7188 18.0475L19.7124 22.0891C19.8965 22.4624 20.2525 22.7195 20.6653 22.7812L25.1234 23.4289L21.8975 26.5707C21.5997 26.8624 21.4637 27.2802 21.5342 27.693L22.2955 32.1325L18.3083 30.0363C18.1229 29.9399 17.9215 29.8905 17.7188 29.8905C17.5161 29.8905 17.3146 29.9399 17.1292 30.0363L13.142 32.1325L13.9033 27.693C13.9738 27.2802 13.8378 26.8624 13.54 26.5707L10.3141 23.4289Z" fill="#2575FC"/>
<path fill-rule="evenodd" clip-rule="evenodd" d="M73.5879 21.2907L67.2499 20.3711L64.4159 14.6264C63.9907 13.7661 62.5718 13.7661 62.1466 14.6264L59.3126 20.3711L52.9746 21.2907C52.4975 21.3599 52.102 21.6936 51.9524 22.1534C51.8041 22.6107 51.9277 23.115 52.2725 23.4511L56.8592 27.9204L55.7765 34.2312C55.6949 34.7083 55.8902 35.1878 56.2795 35.4696C56.6713 35.7539 57.1867 35.7935 57.6131 35.566L63.2813 32.5849L68.9494 35.566C69.1348 35.6649 69.3375 35.7119 69.5389 35.7119C69.801 35.7119 70.0617 35.6303 70.283 35.4696C70.6723 35.1878 70.8676 34.7083 70.786 34.2312L69.7033 27.9204L74.29 23.4511C74.6348 23.115 74.7584 22.6107 74.6101 22.1534C74.4605 21.6936 74.065 21.3599 73.5879 21.2907ZM67.46 26.5707C67.1622 26.8624 67.0262 27.2802 67.0967 27.693L67.858 32.1325L63.8708 30.0363C63.6854 29.9399 63.484 29.8905 63.2813 29.8905C63.0786 29.8905 62.8771 29.9399 62.6917 30.0363L58.7045 32.1325L59.4658 27.693C59.5363 27.2802 59.4003 26.8624 59.1025 26.5707L55.8766 23.4289L60.3347 22.7812C60.7475 22.7195 61.1035 22.4624 61.2877 22.0891L63.2813 18.0475L65.2749 22.0891C65.459 22.4624 65.815 22.7195 66.2278 22.7812L70.6859 23.4289L67.46 26.5707Z" fill="#2575FC"/>
<path d="M40.5 77.2031C41.199 77.2031 41.7656 76.6365 41.7656 75.9375C41.7656 75.2385 41.199 74.6719 40.5 74.6719C39.801 74.6719 39.2344 75.2385 39.2344 75.9375C39.2344 76.6365 39.801 77.2031 40.5 77.2031Z" fill="#2575FC"/>
</svg>
